grf
version=1
nRows=85
nColumns=10
inDegrees=yes
endheader
time	ground_force_3_vx	ground_force_3_vy	ground_force_3_vz	ground_force_3_px	ground_force_3_py	ground_force_3_pz	ground_moment_3_mx	ground_moment_3_my	ground_moment_3_mz
0.000000	0.000000	0.000000	0.000000	0.757287	0.000000	-0.234335	0.000000	0.000000	0.000000
0.001000	0.000000	0.000000	0.000000	0.757957	0.000000	-0.234602	0.000000	0.000000	0.000000
0.002000	0.000000	0.000000	0.000000	0.758645	0.000000	-0.234877	0.000000	0.000000	0.000000
0.003000	0.000000	0.000000	0.000000	0.759395	0.000000	-0.235176	0.000000	0.000000	0.000000
0.004000	0.000000	0.000000	0.000000	0.760267	0.000000	-0.235525	0.000000	0.000000	0.000000
0.005000	0.000000	0.000000	0.000000	0.761360	0.000000	-0.235961	0.000000	0.000000	0.000000
0.006000	0.000000	0.000000	0.000000	0.762864	0.000000	-0.236561	0.000000	0.000000	0.000000
0.007000	0.000000	0.000000	0.000000	0.765230	0.000000	-0.237505	0.000000	0.000000	0.000000
0.008000	0.000000	0.000000	0.000000	0.769856	0.000000	-0.239351	0.000000	0.000000	0.000000
0.009000	0.000000	0.000000	0.000000	0.784494	0.000000	-0.245194	0.000000	0.000000	0.000000
0.010000	0.000000	0.000000	0.000000	0.563755	0.000000	-0.157094	0.000000	0.000000	0.000000
0.011000	0.000000	0.000000	0.000000	0.736723	0.000000	-0.226128	0.000000	0.000000	0.000000
0.012000	0.000000	0.000000	0.000000	0.746917	0.000000	-0.230196	0.000000	0.000000	0.000000
0.013000	0.000000	0.000000	0.000000	0.750731	0.000000	-0.231719	0.000000	0.000000	0.000000
0.014000	0.000000	0.000000	0.000000	0.752816	0.000000	-0.232551	0.000000	0.000000	0.000000
0.015000	0.000000	0.000000	0.000000	0.754193	0.000000	-0.233100	0.000000	0.000000	0.000000
0.016000	0.000000	0.000000	0.000000	0.755219	0.000000	-0.233510	0.000000	0.000000	0.000000
0.017000	0.000000	0.000000	0.000000	0.756054	0.000000	-0.233843	0.000000	0.000000	0.000000
0.018000	0.000000	0.000000	0.000000	0.756785	0.000000	-0.234135	0.000000	0.000000	0.000000
0.019000	0.000000	0.000000	0.000000	0.757465	0.000000	-0.234406	0.000000	0.000000	0.000000
0.020000	0.000000	0.000000	0.000000	0.758135	0.000000	-0.234674	0.000000	0.000000	0.000000
0.021000	0.000000	0.000000	0.000000	0.758835	0.000000	-0.234953	0.000000	0.000000	0.000000
0.022000	0.000000	0.000000	0.000000	0.759611	0.000000	-0.235262	0.000000	0.000000	0.000000
0.023000	0.000000	0.000000	0.000000	0.760529	0.000000	-0.235629	0.000000	0.000000	0.000000
0.024000	0.000000	0.000000	0.000000	0.761706	0.000000	-0.236099	0.000000	0.000000	0.000000
0.025000	0.000000	0.000000	0.000000	0.763376	0.000000	-0.236765	0.000000	0.000000	0.000000
0.026000	0.000000	0.000000	0.000000	0.766126	0.000000	-0.237863	0.000000	0.000000	0.000000
0.027000	0.000000	0.000000	0.000000	0.771988	0.000000	-0.240202	0.000000	0.000000	0.000000
0.028000	0.000000	0.000000	0.000000	0.796215	0.000000	-0.249871	0.000000	0.000000	0.000000
0.029000	0.000000	0.000000	0.000000	0.696313	0.000000	-0.210000	0.000000	0.000000	0.000000
0.030000	0.000000	0.000000	0.000000	0.740814	0.000000	-0.227761	0.000000	0.000000	0.000000
0.031000	0.000000	0.000000	0.000000	0.748216	0.000000	-0.230715	0.000000	0.000000	0.000000
0.032000	0.000000	0.000000	0.000000	0.751387	0.000000	-0.231980	0.000000	0.000000	0.000000
0.033000	0.000000	0.000000	0.000000	0.753229	0.000000	-0.232715	0.000000	0.000000	0.000000
0.034000	0.000000	0.000000	0.000000	0.754490	0.000000	-0.233219	0.000000	0.000000	0.000000
0.035000	0.000000	0.000000	0.000000	0.755454	0.000000	-0.233603	0.000000	0.000000	0.000000
0.036000	0.000000	0.000000	0.000000	0.756255	0.000000	-0.233923	0.000000	0.000000	0.000000
0.037000	0.000000	0.000000	0.000000	0.756967	0.000000	-0.234208	0.000000	0.000000	0.000000
0.038000	0.000000	0.000000	0.000000	0.757641	0.000000	-0.234476	0.000000	0.000000	0.000000
0.039000	0.000000	0.000000	0.000000	0.758316	0.000000	-0.234746	0.000000	0.000000	0.000000
0.040000	0.000000	0.000000	0.000000	0.759030	0.000000	-0.235031	0.000000	0.000000	0.000000
0.041000	0.000000	0.000000	0.000000	0.766849	0.000000	-0.236490	0.000000	0.000000	0.000000
0.042000	0.000000	0.000000	0.000000	0.767009	0.000000	-0.236530	0.000000	0.000000	0.000000
0.043000	0.000000	0.000000	0.000000	0.767166	0.000000	-0.236571	0.000000	0.000000	0.000000
0.044000	0.000000	0.000000	0.000000	0.767322	0.000000	-0.236614	0.000000	0.000000	0.000000
0.045000	0.000000	0.000000	0.000000	0.767479	0.000000	-0.236658	0.000000	0.000000	0.000000
0.046000	0.000000	0.000000	0.000000	0.767639	0.000000	-0.236701	0.000000	0.000000	0.000000
0.047000	0.000000	0.000000	0.000000	0.767806	0.000000	-0.236745	0.000000	0.000000	0.000000
0.048000	0.000000	0.000000	0.000000	0.767979	0.000000	-0.236787	0.000000	0.000000	0.000000
0.049000	0.000000	0.000000	0.000000	0.768158	0.000000	-0.236827	0.000000	0.000000	0.000000
0.050000	0.000000	0.000000	0.000000	0.768342	0.000000	-0.236866	0.000000	0.000000	0.000000
0.051000	0.000000	0.000000	0.000000	0.768531	0.000000	-0.236901	0.000000	0.000000	0.000000
0.052000	0.000000	0.000000	0.000000	0.768719	0.000000	-0.236933	0.000000	0.000000	0.000000
0.053000	0.000000	0.000000	0.000000	0.768908	0.000000	-0.236962	0.000000	0.000000	0.000000
0.054000	0.000000	0.000000	0.000000	0.769094	0.000000	-0.236987	0.000000	0.000000	0.000000
0.055000	0.000000	0.000000	0.000000	0.769279	0.000000	-0.237007	0.000000	0.000000	0.000000
0.056000	-17.581245	68.282033	4.209051	0.769462	0.000000	-0.237023	0.000000	-0.065550	0.000000
0.057000	-18.398921	71.809531	4.312230	0.769643	0.000000	-0.237034	0.000000	-0.067193	0.000000
0.058000	-19.227467	75.398418	4.414075	0.769823	0.000000	-0.237042	-0.000000	-0.068781	0.000000
0.059000	-20.066458	79.047414	4.514455	0.770002	0.000000	-0.237044	-0.000000	-0.070311	0.000000
0.060000	-20.915453	82.755174	4.613241	0.770180	0.000000	-0.237040	-0.000000	-0.071778	0.000000
0.061000	-21.773997	86.520288	4.710301	0.770359	0.000000	-0.237029	-0.000000	-0.073178	0.000000
0.062000	-22.641618	90.341278	4.805504	0.770538	0.000000	-0.237012	-0.000000	-0.074508	0.000000
0.063000	-23.517832	94.216608	4.898721	0.770719	0.000000	-0.236987	-0.000000	-0.075763	0.000000
0.064000	-24.402141	98.144675	4.989820	0.770903	0.000000	-0.236956	-0.000000	-0.076938	0.000000
0.065000	-25.294032	102.123818	5.078671	0.771095	0.000000	-0.236916	-0.000000	-0.078031	0.000000
0.066000	-26.192981	106.152315	5.165145	0.771297	0.000000	-0.236870	-0.000000	-0.079036	0.000000
0.067000	-27.098451	110.228390	5.249114	0.771509	0.000000	-0.236818	-0.000000	-0.079949	0.000000
0.068000	-28.009894	114.350207	5.330449	0.771734	0.000000	-0.236761	-0.000000	-0.080767	0.000000
0.069000	-28.926749	118.515878	5.409025	0.771979	0.000000	-0.236697	-0.000000	-0.081485	0.000000
0.070000	-29.848446	122.723462	5.484717	0.772244	0.000000	-0.236627	-0.000000	-0.082098	0.000000
0.071000	-30.774406	126.970969	5.557401	0.772527	0.000000	-0.236551	-0.000000	-0.082604	0.000000
0.072000	-31.704039	131.256359	5.626957	0.772832	0.000000	-0.236471	-0.000000	-0.082998	0.000000
0.073000	-32.636746	135.577547	5.693264	0.773159	0.000000	-0.236387	-0.000000	-0.083275	0.000000
0.074000	-33.571922	139.932403	5.756206	0.773518	0.000000	-0.236299	-0.000000	-0.083433	0.000000
0.075000	-34.508954	144.318757	5.815669	0.773899	0.000000	-0.236209	-0.000000	-0.083466	0.000000
0.076000	-35.447222	148.734398	5.871540	0.774302	0.000000	-0.236119	-0.000000	-0.083371	-0.000000
0.077000	-36.386101	153.177078	5.923710	0.774725	0.000000	-0.236028	-0.000000	-0.083145	-0.000000
0.078000	-37.324960	157.644516	5.972074	0.775172	0.000000	-0.235940	-0.000000	-0.082784	-0.000000
0.079000	-38.263165	162.134395	6.016529	0.775636	0.000000	-0.235855	-0.000000	-0.082283	-0.000000
0.080000	-39.200078	166.644373	6.056975	0.776113	0.000000	-0.235773	-0.000000	-0.081640	-0.000000
0.081000	-40.135057	171.172076	6.093317	0.776602	0.000000	-0.235698	-0.000000	-0.080852	-0.000000
0.082000	-41.067461	175.715109	6.125463	0.777101	0.000000	-0.235628	-0.000000	-0.079914	-0.000000
0.083000	-41.996643	180.271052	6.153326	0.777609	0.000000	-0.235568	-0.000000	-0.078824	-0.000000
0.084000	-42.921961	184.837467	6.176822	0.778121	0.000000	-0.235517	-0.000000	-0.077578	-0.000000
